<svg width="125" height="39" viewBox="0 0 125 39" fill="none" xmlns="http://www.w3.org/2000/svg">
<path d="M7.784 31.384C6.26933 31.384 4.872 31.1067 3.592 30.552C2.33333 29.976 1.29867 29.1653 0.488 28.12L3.368 24.664C3.98667 25.4747 4.63733 26.0933 5.32 26.52C6.00267 26.9253 6.73867 27.128 7.528 27.128C9.64 27.128 10.696 25.8907 10.696 23.416V12.76H2.824V8.6H15.848V23.128C15.848 25.9013 15.1653 27.9707 13.8 29.336C12.4347 30.7013 10.4293 31.384 7.784 31.384ZM48.942 31.256C48.0887 31.256 47.3527 30.968 46.734 30.392C46.1367 29.7947 45.838 29.0373 45.838 28.12C45.838 27.2027 46.1367 26.4667 46.734 25.912C47.3527 25.336 48.0887 25.048 48.942 25.048C49.8167 25.048 50.5527 25.336 51.15 25.912C51.7473 26.4667 52.046 27.2027 52.046 28.12C52.046 29.0373 51.7473 29.7947 51.15 30.392C50.5527 30.968 49.8167 31.256 48.942 31.256ZM55.781 31V8.6H65.957C68.389 8.6 70.533 9.06933 72.389 10.008C74.245 10.9253 75.6957 12.216 76.741 13.88C77.7863 15.544 78.309 17.5173 78.309 19.8C78.309 22.0613 77.7863 24.0347 76.741 25.72C75.6957 27.384 74.245 28.6853 72.389 29.624C70.533 30.5413 68.389 31 65.957 31H55.781ZM60.965 26.744H65.701C67.1943 26.744 68.485 26.4667 69.573 25.912C70.6823 25.336 71.5357 24.5253 72.133 23.48C72.7517 22.4347 73.061 21.208 73.061 19.8C73.061 18.3707 72.7517 17.144 72.133 16.12C71.5357 15.0747 70.6823 14.2747 69.573 13.72C68.485 13.144 67.1943 12.856 65.701 12.856H60.965V26.744ZM86.9865 17.624H97.7705V21.656H86.9865V17.624ZM87.3705 26.84H99.5625V31H82.2185V8.6H99.1465V12.76H87.3705V26.84ZM110.095 31L100.431 8.6H106.031L114.479 28.44H111.183L119.759 8.6H124.911L115.215 31H110.095Z" fill="#FFFFFF"/>
<path d="M42.344 31V8.6H32.168C29.736 8.6 27.592 9.06933 25.736 10.008C23.88 10.9253 22.4293 12.216 21.384 13.88C20.3387 15.544 19.816 17.5173 19.816 19.8C19.816 22.0613 20.3387 24.0347 21.384 25.72C22.4293 27.384 23.88 28.6853 25.736 29.624C27.592 30.5413 29.736 31 32.168 31H42.344ZM37.16 26.744H32.424C30.9307 26.744 29.64 26.4667 28.552 25.912C27.4427 25.336 26.5893 24.5253 25.992 23.48C25.3733 22.4347 25.064 21.208 25.064 19.8C25.064 18.3707 25.3733 17.144 25.992 16.12C26.5893 15.0747 27.4427 14.2747 28.552 13.72C29.64 13.144 30.9307 12.856 32.424 12.856H37.16V26.744Z" fill="#FFFFFF"/>
</svg>
